<svg width="41px" height="40px" viewBox="0 0 41 40" version="1.1" xmlns="http://www.w3.org/2000/svg" xmlns:xlink="http://www.w3.org/1999/xlink">
    <g id="Page-1" stroke="none" stroke-width="1" fill="none" fill-rule="evenodd">
        <g id="Github" fill="#FFFFFF">
            <path d="M20.5042559,0 C9.18209986,0 -1.27897692e-13,9.180841 -1.27897692e-13,20.5067736 C-1.27897692e-13,29.5667644 5.87508364,37.2520838 14.0236622,39.9636608 C15.0496304,40.1524893 15.4235108,39.5192845 15.4235108,38.9754584 C15.4235108,38.4895398 15.4058868,37.1992118 15.3958159,35.4884257 C9.69193677,36.7271406 8.48846988,32.7390829 8.48846988,32.7390829 C7.55565716,30.3699149 6.21119834,29.7392277 6.21119834,29.7392277 C4.34934947,28.4677826 6.35219028,28.4929597 6.35219028,28.4929597 C8.41042078,28.6377282 9.49303743,30.6065799 9.49303743,30.6065799 C11.322156,33.7398739 14.2930576,32.834756 15.4612765,32.3098129 C15.6475872,30.9854957 16.1775658,30.0816367 16.7629342,29.5692821 C12.2096499,29.051892 7.42221837,27.2920105 7.42221837,19.4342278 C7.42221837,17.1959808 8.22159229,15.3643445 9.53332084,13.9317657 C9.32183294,13.4131168 8.61813211,11.3271915 9.73473789,8.50483502 C9.73473789,8.50483502 11.4555948,7.95345584 15.3731565,10.6071255 C17.0084112,10.1514194 18.7632572,9.92482524 20.5067736,9.91601324 C22.2490311,9.92482524 24.0026183,10.1514194 25.6403907,10.6071255 C29.5554347,7.95345584 31.2737739,8.50483502 31.2737739,8.50483502 C32.3928974,11.3271915 31.6891966,13.4131168 31.4789675,13.9317657 C32.7932138,15.3643445 33.5862934,17.1959808 33.5862934,19.4342278 C33.5862934,27.3121522 28.7913087,29.0455978 24.2241771,29.552917 C24.9593493,30.1861218 25.6152136,31.4374252 25.6152136,33.3508872 C25.6152136,36.091418 25.5900365,38.303229 25.5900365,38.9754584 C25.5900365,39.5243199 25.9601403,40.1625602 26.9999558,39.962402 C35.1422401,37.2445306 41.0122884,29.5642467 41.0122884,20.5067736 C41.0122884,9.180841 31.8301885,0 20.5042559,0"></path>
        </g>
    </g>
</svg>