<svg width="40px" height="40px" viewBox="0 0 40 40" version="1.1" xmlns="http://www.w3.org/2000/svg" xmlns:xlink="http://www.w3.org/1999/xlink">
    <g id="Page-1" stroke="none" stroke-width="1" fill="none" fill-rule="evenodd">
        <g id="LinkedIn" fill="#FFFFFF">
            <path d="M34.4,34.4 L28.4374272,34.4 L28.4374272,23.7748939 C28.4374272,20.6400294 27.139647,19.6735193 25.4661937,19.6735193 C23.696894,19.6735193 21.9625728,21.0408327 21.9625728,23.8532443 L21.9625728,34.4 L16,34.4 L16,14.9470385 L21.7342494,14.9470385 L21.7342494,17.642066 L21.8102654,17.642066 C22.3872708,16.4444646 24.4011436,14.4 27.4775877,14.4 C30.8046642,14.4 34.4,16.4269276 34.4,22.3688296 L34.4,34.4 Z M9.19985579,12.8 C7.21172936,12.8 5.6,11.2805214 5.6,9.20086894 C5.6,7.12121651 7.21172936,5.6 9.19985579,5.6 C11.1882706,5.6 12.8,7.12121651 12.8,9.20086894 C12.8,11.2805214 11.1882706,12.8 9.19985579,12.8 Z M5.6,34.4 L12,34.4 L12,15.2 L5.6,15.2 L5.6,34.4 Z M37.0473042,0 L2.95269576,0 C1.32218549,0 0,1.32194444 0,2.95277778 L0,37.0472222 C0,38.6780556 1.32218549,40 2.95269576,40 L37.0473042,40 C38.6780923,40 40,38.6780556 40,37.0472222 L40,2.95277778 C40,1.32194444 38.6780923,0 37.0473042,0 L37.0473042,0 Z"></path>
        </g>
    </g>
</svg>