<svg width="39px" height="32px" viewBox="0 0 39 32" version="1.1" xmlns="http://www.w3.org/2000/svg" xmlns:xlink="http://www.w3.org/1999/xlink">
    <g id="Page-1" stroke="none" stroke-width="1" fill="none" fill-rule="evenodd">
        <g id="Twitter" fill="#FFFFFF" fill-rule="nonzero">
            <g transform="translate(-0.000000, 0.000000)" id="Path">
                <path d="M12.1703226,31.6995086 C26.7716129,31.6995086 34.7612903,19.5241571 34.7612903,8.98360337 C34.7612903,8.6410743 34.7612903,8.29854522 34.7458065,7.95601615 C36.2941935,6.83501192 37.6412903,5.41818713 38.7096774,3.81452829 C37.2851613,4.45287793 35.7522581,4.87325451 34.1419355,5.07565805 C35.7832258,4.09477935 37.0374194,2.52225952 37.6412903,0.653919136 C36.1083871,1.57251983 34.4051613,2.22643896 32.5935484,2.58453754 C31.1380645,1.02758721 29.0787097,0.0622780129 26.8025806,0.0622780129 C22.4206452,0.0622780129 18.8593548,3.64326376 18.8593548,8.04943317 C18.8593548,8.6722133 18.9367742,9.27942393 19.0606452,9.87106505 C12.4645161,9.54410548 6.6116129,6.35235732 2.69419355,1.52581132 C2.01290323,2.70909356 1.62580645,4.07920985 1.62580645,5.54274315 C1.62580645,8.31411473 3.03483871,10.7585267 5.15612903,12.190921 C3.85548387,12.1442125 2.63225806,11.7861139 1.56387097,11.1944728 C1.56387097,11.2256118 1.56387097,11.2567508 1.56387097,11.3034593 C1.56387097,15.1646962 4.30451613,18.4031528 7.92774194,19.1349195 C7.26193548,19.3217535 6.56516129,19.4151705 5.83741935,19.4151705 C5.32645161,19.4151705 4.83096774,19.368462 4.35096774,19.275045 C5.35741935,22.4512237 8.29935484,24.7555101 11.7677419,24.8177882 C9.04258065,26.9663796 5.62064516,28.2430789 1.90451613,28.2430789 C1.26967742,28.2430789 0.63483871,28.2119399 0.015483871,28.1340923 C3.51483871,30.3761008 7.69548387,31.6995086 12.1703226,31.6995086"></path>
            </g>
        </g>
    </g>
</svg>