<svg width="40px" height="40px" viewBox="0 0 40 40" version="1.1" xmlns="http://www.w3.org/2000/svg" xmlns:xlink="http://www.w3.org/1999/xlink">
    <defs>
        <linearGradient x1="50.0007039%" y1="100.002858%" x2="50.0007039%" y2="0.00300051009%" id="linearGradient-1">
            <stop stop-color="#F9F9F9" offset="0%"></stop>
            <stop stop-color="#FFFFFF" offset="100%"></stop>
        </linearGradient>
    </defs>
    <g id="Page-1" stroke="none" stroke-width="1" fill="none" fill-rule="evenodd">
        <g id="WhatsApp">
            <g id="WhatsApp_logo">
                <g id="Group">
                    <path d="M11.0269462,33.2192286 L11.6171492,33.5690811 C14.0971335,35.0408347 16.9404059,35.819181 19.8398748,35.8207498 L19.8461998,35.8207498 C28.7507908,35.8207498 35.9980622,28.5751592 36.0014239,19.6700079 C36.0028246,15.3541975 34.3241022,11.296566 31.273917,8.24357934 C28.2235077,5.191153 24.1678371,3.50895681 19.8519707,3.50716391 C10.9406563,3.50716391 3.69338489,10.7516339 3.69002318,19.6567852 C3.68884659,22.7083711 4.54249504,25.6803967 6.15992242,28.2515392 L6.54436117,28.8626969 L4.91191819,34.822436 L11.0269462,33.2192286 Z M0.24540432,39.4389395 L3.00289725,29.3700787 C1.30204361,26.4232098 0.407270321,23.0803323 0.40867103,19.6558775 C0.412817131,8.94213003 9.13173008,0.225794386 19.8465982,0.225794386 C25.0459201,0.228035521 29.9261044,2.25155662 33.5959635,5.92444128 C37.2654304,9.59726992 39.2856459,14.4794152 39.283965,19.6715655 C39.2794267,30.3847527 30.5586648,39.1027692 19.8465982,39.1027692 C19.8458082,39.1027692 19.8469935,39.1027692 19.8465982,39.1027692 L19.8382964,39.1027692 C16.5852885,39.1016486 13.3888692,38.2856513 10.549911,36.7372509 L0.24540432,39.4389395 Z" id="Shape" fill="#FFFFFF" fill-rule="nonzero"></path>
                    <path d="M0.408446917,19.6603598 C0.407270321,23.0847586 1.30204361,26.4280283 3.00289725,29.374561 L0.245180207,39.4428615 L10.5493602,36.7411168 C13.3884865,38.2893491 16.5847377,39.1052905 19.8377457,39.1066352 L19.8460474,39.1066352 C30.5581141,39.1066352 39.278932,30.3886187 39.2834142,19.6754314 C39.2852072,14.483001 37.2649357,9.60096779 33.5954127,5.92830724 C29.9253295,2.2556467 25.0454814,0.23190148 19.8460474,0.229660344 C9.1317396,0.229660344 0.412602542,8.94599598 0.408120271,19.6597435 L0.408446917,19.6603598 Z M6.54434885,28.8668878 L6.15970839,28.2559543 C4.54228101,25.6844756 3.68863256,22.712506 3.68980915,19.6612002 C3.69333894,10.7566092 10.9404423,3.51157894 19.8517567,3.51157894 C24.1671749,3.51325979 28.2229575,5.19562407 31.273703,8.24799438 C34.3241123,11.3005888 36.0026106,15.3585565 36.001434,19.6738627 C35.9974812,28.5790139 28.7502406,35.8246045 19.8456496,35.8246045 L19.8393246,35.8246045 C16.9399117,35.8229237 14.0964152,35.0446334 11.616599,33.5731039 L11.026396,33.2232515 L4.91145819,34.8264477 L6.54434885,28.8668878 Z" id="Shape" fill="url(#linearGradient-1)" fill-rule="nonzero"></path>
                    <path d="M14.9881529,11.5362442 C14.624271,10.7274184 14.2414066,10.7112262 13.8953193,10.696995 C13.612079,10.6849489 13.2881397,10.6857333 12.9645758,10.6857333 C12.6406197,10.6857333 12.1144571,10.8072925 11.6695357,11.2933051 C11.2242165,11.7793401 9.9695225,12.9542105 9.9695225,15.343653 C9.9695225,17.7333196 11.7101003,20.0423053 11.9525911,20.3666536 C12.1955078,20.6904136 15.3125572,25.7508132 20.2487139,27.6974073 C24.3514483,29.3152269 25.1863272,28.9934559 26.0767863,28.9123828 C26.9672454,28.8315395 28.950314,27.7379158 29.354895,26.6037893 C29.7596945,25.4698309 29.7596945,24.4977944 29.6383314,24.2948036 C29.5169683,24.0924011 29.1930122,23.9708419 28.7073638,23.7281325 C28.2215248,23.4852159 25.8338361,22.3101662 25.3887466,22.1480761 C24.9434274,21.9861933 24.619645,21.9053499 24.2956888,22.3915866 C23.9719288,22.8772239 23.0417736,23.9708587 22.758326,24.2948148 C22.4750857,24.6193648 22.1916549,24.6598845 21.7060009,24.4169623 C21.220162,24.1732556 19.6559224,23.6609153 17.8003183,22.0065652 C16.3564669,20.719257 15.3817971,19.1295077 15.0983495,18.6432373 C14.8151092,18.1576001 15.068111,17.8945301 15.3116216,17.6523754 C15.5298353,17.4347555 15.7974605,17.0853121 16.0403828,16.8018645 C16.2827055,16.518232 16.3635489,16.3158295 16.5254317,15.9918622 C16.6875106,15.6677044 16.6064711,15.3840663 16.485108,15.1411272 C16.3635489,14.8982105 15.4197283,12.4964754 14.9878616,11.5360929" id="Path" fill="#FFFFFF"></path>
                </g>
            </g>
        </g>
    </g>
</svg>